#!OML:ASF H:\LiuWeirdWalks\Patient Classification 1\Patient 1\Session 1\male.ASF
:FULLY-SPECIFIED
:DEGREES
142
root -0.348406 17.5452 -28.6912 7.26959 2.70844 -5.06477
lowerback 6.54887 -3.03954 1.58201
upperback -2.62228 -3.53368 6.70565
thorax -6.1029 -1.66828 6.60339
lowerneck -14.6384 6.20436 9.36716
upperneck 17.8772 9.36379 -13.9687
head 9.1589 3.68777 -5.16939
rclavicle -1.27222e-014 -5.40694e-014
rhumerus -33.9344 -1.35825 -76.6811
rradius 19.7465
rwrist 1.23781
rhand -15.7781 -4.08909
rfingers 7.12502
rthumb 10.4142 -33.8112
lclavicle -1.27222e-014 -5.40694e-014
lhumerus -36.6513 11.2745 88.5109
lradius 31.5913
lwrist 11.4916
lhand -12.8946 0.56837
lfingers 7.12502
lthumb 13.1948 30.1308
rfemur -5.75881 0.250941 28.2059
rtibia 26.6451
rfoot -24.1783 -23.0563
rtoes -4.95883
lfemur -35.4368 3.72574 -11.1046
ltibia 62.6078
lfoot -12.898 11.7217
ltoes -17.6402
143
root -0.352317 17.5465 -28.6076 7.35279 2.76308 -5.04043
lowerback 6.62718 -2.98378 1.6584
upperback -2.68254 -3.44441 6.67986
thorax -6.22684 -1.62423 6.53259
lowerneck -14.4327 6.14605 9.38014
upperneck 17.8216 9.2884 -13.9795
head 9.09244 3.66238 -5.18836
rclavicle 1.36167e-014 -7.15625e-014
rhumerus -34.132 -1.68662 -76.4514
rradius 19.4862
rwrist 1.46892
rhand -15.7898 -4.32596
rfingers 7.12502
rthumb 10.4029 -34.0486
lclavicle 1.36167e-014 -7.15625e-014
lhumerus -37.0834 11.2977 88.4202
lradius 31.7651
lwrist 11.6504
lhand -12.836 0.64856
lfingers 7.12502
lthumb 13.2513 30.2073
rfemur -5.24713 0.285065 28.2376
rtibia 26.0332
rfoot -23.92 -23.3235
rtoes -4.77743
lfemur -36.2641 3.81793 -11.2998
ltibia 62.0051
lfoot -13.0014 11.8707
ltoes -17.639
144
root -0.356121 17.5475 -28.5219 7.4362 2.84413 -5.03559
lowerback 6.72332 -2.93699 1.72491
upperback -2.74571 -3.36513 6.6828
thorax -6.36087 -1.58407 6.50095
lowerneck -14.1759 6.08445 9.36326
upperneck 17.6844 9.21223 -14.0046
head 8.98809 3.63721 -5.20618
rclavicle 1.27222e-014 6.36111e-015
rhumerus -34.3105 -1.9566 -76.2192
rradius 19.2184
rwrist 1.75616
rhand -15.794 -4.49613
rfingers 7.12502
rthumb 10.3989 -34.219
lclavicle 1.27222e-014 6.36111e-015
lhumerus -37.5427 11.3576 88.3417
lradius 31.9298
lwrist 11.7775
lhand -12.8021 0.651476
lfingers 7.12502
lthumb 13.2839 30.2081
rfemur -4.71075 0.319636 28.2994
rtibia 25.374
rfoot -23.6143 -23.6044
rtoes -4.53914
lfemur -37.0689 3.87947 -11.4736
ltibia 61.2348
lfoot -13.0618 12.0232
ltoes -17.5895
145
root -0.358951 17.5483 -28.433 7.51516 2.93537 -5.04189
lowerback 6.80473 -2.89173 1.79761
upperback -2.78969 -3.2884 6.69838
thorax -6.46542 -1.54601 6.47711
lowerneck -13.922 6.02792 9.33107
upperneck 17.504 9.14329 -14.0393
head 8.87078 3.6144 -5.22253
rclavicle 1.68967e-014 -3.18055e-015
rhumerus -34.4496 -2.18285 -75.9984
rradius 18.9567
rwrist 2.04557
rhand -15.7591 -4.60264
rfingers 7.12502
rthumb 10.4325 -34.3238
lclavicle 1.68967e-014 -3.18055e-015
lhumerus -37.9944 11.433 88.2734
lradius 32.0875
lwrist 11.9047
lhand -12.7945 0.589246
lfingers 7.12502
lthumb 13.2913 30.1454
rfemur -4.14129 0.348629 28.3741
rtibia 24.672
rfoot -23.2555 -23.8865
rtoes -4.25796
lfemur -37.8339 3.90892 -11.6358
ltibia 60.3093
lfoot -13.1086 12.1776
ltoes -17.5711
146
root -0.361693 17.5491 -28.3419 7.59538 3.04092 -5.06527
lowerback 6.88039 -2.82797 1.90242
upperback -2.81138 -3.1859 6.69947
thorax -6.54776 -1.49752 6.4141
lowerneck -13.6809 5.94048 9.27123
upperneck 17.2434 9.01865 -14.0397
head 8.71868 3.56815 -5.22746
rclavicle 1.02374e-014 2.8625e-014
rhumerus -34.5426 -2.49353 -75.7853
rradius 18.6936
rwrist 2.33538
rhand -15.6801 -4.64499
rfingers 7.12502
rthumb 10.5087 -34.3623
lclavicle 1.02374e-014 2.8625e-014
lhumerus -38.4177 11.4213 88.2144
lradius 32.2421
lwrist 12.0525
lhand -12.8109 0.528518
lfingers 7.12502
lthumb 13.2754 30.0857
rfemur -3.5559 0.398859 28.4794
rtibia 23.9394
rfoot -22.8403 -24.2113
rtoes -3.95999
lfemur -38.5732 3.90433 -11.7721
ltibia 59.2419
lfoot -13.1389 12.3099
ltoes -17.5346
147
root -0.364256 17.5493 -28.2488 7.68008 3.16554 -5.08582
lowerback 6.96018 -2.75983 1.95543
upperback -2.84132 -3.08059 6.71954
thorax -6.63753 -1.44495 6.40135
lowerneck -13.4207 5.81723 9.16707
upperneck 16.9836 8.85162 -14.0265
head 8.55574 3.50096 -5.22588
rclavicle -6.06293e-015 -7.95139e-015
rhumerus -34.6427 -2.76528 -75.5701
rradius 18.4556
rwrist 2.5758
rhand -15.5495 -4.65778
rfingers 7.12502
rthumb 10.6347 -34.3687
lclavicle -6.06293e-015 -7.95139e-015
lhumerus -38.8713 11.4061 88.1702
lradius 32.3927
lwrist 12.2099
lhand -12.847 0.467958
lfingers 7.12502
lthumb 13.2406 30.0274
rfemur -2.96042 0.478284 28.5973
rtibia 23.1872
rfoot -22.3854 -24.5958
rtoes -3.65059
lfemur -39.2934 3.85592 -11.9014
ltibia 58.046
lfoot -13.1628 12.4078
ltoes -17.4846
148
root -0.367041 17.5489 -28.1542 7.77214 3.30859 -5.10456
lowerback 7.04299 -2.67651 2.0313
upperback -2.82678 -2.95569 6.72678
thorax -6.68501 -1.38509 6.35624
lowerneck -13.3503 5.6988 9.04503
upperneck 16.7448 8.68228 -13.9994
head 8.43408 3.42446 -5.21381
rclavicle 1.03368e-014 -6.36111e-015
rhumerus -34.6316 -3.1117 -75.3647
rradius 18.2051
rwrist 2.88445
rhand -15.4182 -4.5907
rfingers 7.12502
rthumb 10.7614 -34.295
lclavicle 1.03368e-014 -6.36111e-015
lhumerus -39.2186 11.3359 88.1484
lradius 32.5173
lwrist 12.3652
lhand -12.9197 0.398792
lfingers 7.12502
lthumb 13.1706 29.9628
rfemur -2.36619 0.595104 28.7334
rtibia 22.4285
rfoot -21.9228 -25.0424
rtoes -3.31183
lfemur -39.9995 3.77124 -12.0204
ltibia 56.7324
lfoot -13.1498 12.4698
ltoes -17.5336
149
root -0.369636 17.5476 -28.0575 7.87135 3.45216 -5.10779
lowerback 7.11508 -2.57148 2.10964
upperback -2.78919 -2.80471 6.71189
thorax -6.70481 -1.31365 6.27989
lowerneck -13.4065 5.58052 8.93758
upperneck 16.5629 8.50611 -13.959
head 8.35443 3.3404 -5.19961
rclavicle 2.44505e-014 -5.40694e-014
rhumerus -34.5843 -3.46409 -75.2066
rradius 17.991
rwrist 3.16863
rhand -15.3124 -4.56228
rfingers 7.12502
rthumb 10.8635 -34.2613
lclavicle 2.44505e-014 -5.40694e-014
lhumerus -39.5279 11.197 88.1325
lradius 32.6372
lwrist 12.5383
lhand -12.9759 0.345858
lfingers 7.12502
lthumb 13.1164 29.9134
rfemur -1.76969 0.74962 28.8658
rtibia 21.6695
rfoot -21.4794 -25.5302
rtoes -2.91985
lfemur -40.6797 3.65327 -12.1425
ltibia 55.3173
lfoot -13.1102 12.499
ltoes -17.6014
150
root -0.372792 17.5447 -27.9595 7.9747 3.62972 -5.0997
lowerback 7.20304 -2.46671 2.19632
upperback -2.73377 -2.65394 6.68491
thorax -6.71504 -1.24323 6.18533
lowerneck -13.5937 5.47711 8.8413
upperneck 16.4157 8.34469 -13.9184
head 8.31325 3.25795 -5.1841
rclavicle -6.35117e-014 6.67916e-014
rhumerus -34.4787 -3.80791 -75.0943
rradius 17.7951
rwrist 3.46159
rhand -15.2339 -4.51741
rfingers 7.12502
rthumb 10.9391 -34.2124
lclavicle -6.35117e-014 6.67916e-014
lhumerus -39.8009 11.0366 88.1143
lradius 32.7427
lwrist 12.7163
lhand -13.0354 0.254937
lfingers 7.12502
lthumb 13.0591 29.8261
rfemur -1.16988 0.931889 29.0111
rtibia 20.9065
rfoot -21.0608 -26.0792
rtoes -2.47637
lfemur -41.3442 3.48498 -12.2571
ltibia 53.8143
lfoot -12.9899 12.486
ltoes -17.7108
